<svg xmlns="http://www.w3.org/2000/svg" xmlns:xlink="http://www.w3.org/1999/xlink" id="Layer_1" x="0px" y="0px" viewBox="0 0 822 166" style="enable-background:new 0 0 822 166;" xml:space="preserve"><style type="text/css">	.st0{fill:#FFFFFF;}</style><g>	<g>		<polygon class="st0" points="105.59,53.23 49.67,151.76 6.83,151.76 81.56,15.15 129.63,15.15 202.93,151.76 161.28,151.76   "></polygon>		<path class="st0" d="M229.59,82.26L229.59,82.26H337.4c18.31,0,16.42-13.09,16.42-17.14v-5.24c0-2.62,1.37-11.9-10.23-11.9h-114   V15.15h129.23c7.62,0,12.61,1.43,17.85,4.05c5,2.62,7.62,5.24,10.23,6.66c2.62,2.62,3.81,5.24,5,7.85   c1.19,2.62,1.19,4.05,1.19,6.66v33.79c0,5.99-11.42,18.33-15.23,22.37l14.04,13.66c1.58,1.2,1.19,4.9,1.19,7.52v32.6h-40.46   v-27.61l-10.23-6.9h-72.11v34.51h-40.46V82.26H229.59z"></path>		<path class="st0" d="M422.12,68.94L422.12,68.94c0-7.85,1.19-14.52,2.62-20.94c1.19-5.24,3.81-11.9,7.62-15.71   c3.81-5.24,7.62-9.28,12.61-11.9c6.43-2.62,12.61-5.24,20.23-5.24h98.77c7.62,0,15.23,2.62,20.23,5.24   c5,2.62,10.23,6.66,12.61,10.47c3.81,5.24,6.43,10.47,7.62,15.71c1.19,6.66,1.19,11.9,1.19,15.71v2.62h-40.46   c0,0-0.3-14.52-18.8-14.52h-63.31c-19.52,0-19.04,10.15-19.04,18.33v29.27c0,10.28,6.79,18.71,19.04,18.8h63.31   c20.25,0,18.8-14.52,18.8-15.95h40.46v2.62c0,5.24,0,10.47-1.19,15.71c-1.19,6.66-3.81,11.9-7.62,15.71   c-2.62,5.24-7.62,9.28-12.61,11.9c-5,2.62-12.61,4.05-20.23,4.05H465.2c-7.62,0-14.04-1.43-20.23-4.05   c-5-2.62-8.81-6.66-12.61-11.9c-3.81-5.24-6.43-10.47-7.62-17.14c-1.19-5.24-2.62-13.09-2.62-19.75V68.94z"></path>		<polygon class="st0" points="712.23,53.23 712.23,53.23 656.54,151.76 614.66,151.76 688.2,15.15 736.27,15.15 811,151.76    767.92,151.76   "></polygon>	</g></g><polygon class="st0" points="87.19,120.23 87.19,120.23 130.15,120.23 130.15,151.76 87.19,151.76 "></polygon><polygon class="st0" points="691.35,120.23 691.35,120.23 734.31,120.23 734.31,151.76 691.35,151.76 "></polygon></svg>