<svg width="482" height="122" viewBox="68 41 482 122" fill="none" xmlns="http://www.w3.org/2000/svg">
<path d="M522.875 121.252L539.227 144.58V121.252H547.689V161.275H540.6L524.19 137.947V161.275H515.728V121.252H522.875Z" fill="white"/>
<path d="M513.912 161.275H504.706L494.529 134.517L484.18 161.275H475.203L491.098 121.252H497.959L513.912 161.275ZM504.821 154.585H484.123L487.039 147.21H501.905L504.821 154.585Z" fill="white"/>
<path d="M449.969 140.12L465.864 121.252H476.556L460.432 140.12L477.928 161.275H466.893L449.969 140.12ZM443.165 121.252H451.627V161.275H443.165V121.252Z" fill="white"/>
<path d="M422.409 121.252V153.156H440.706V161.275H413.947V121.252H422.409Z" fill="white"/>
<path d="M412.131 161.275H402.926L392.749 134.517L382.4 161.275H373.423L389.318 121.252H396.179L412.131 161.275ZM403.04 154.585H382.342L385.258 147.21H400.124L403.04 154.585Z" fill="white"/>
<path d="M345.572 121.252H360.552C362.839 121.252 364.936 121.747 366.842 122.738C368.748 123.691 370.253 124.987 371.359 126.626C372.464 128.227 373.017 129.981 373.017 131.886C373.017 133.068 372.769 134.231 372.274 135.374C371.816 136.48 371.168 137.471 370.33 138.347C369.491 139.186 368.557 139.777 367.528 140.12C368.938 140.387 370.196 140.996 371.302 141.949C372.445 142.864 373.322 144.008 373.932 145.38C374.58 146.752 374.904 148.239 374.904 149.84C374.904 151.936 374.332 153.861 373.188 155.615C372.045 157.368 370.501 158.759 368.557 159.788C366.651 160.779 364.574 161.275 362.325 161.275H345.572V121.252ZM361.696 153.156C362.573 153.156 363.354 152.965 364.04 152.584C364.726 152.203 365.26 151.688 365.641 151.04C366.06 150.354 366.27 149.592 366.27 148.753C366.27 147.915 366.06 147.172 365.641 146.524C365.26 145.837 364.726 145.304 364.04 144.923C363.354 144.541 362.611 144.351 361.81 144.351H354.034V153.156H361.696ZM360.438 136.861C361.2 136.861 361.887 136.689 362.496 136.346C363.144 136.003 363.64 135.546 363.983 134.974C364.326 134.364 364.498 133.697 364.498 132.973C364.498 132.287 364.307 131.677 363.926 131.143C363.583 130.571 363.106 130.133 362.496 129.828C361.887 129.523 361.2 129.371 360.438 129.371H354.034V136.861H360.438Z" fill="white"/>
<path d="M93.4836 72.5374V64.7042H69.9842V72.5374H77.8173V80.3705H101.317V72.5374H93.4836Z" fill="white"/>
<path d="M117.081 80.3645V72.5313H109.149V80.3645H101.316V88.1976H109.149V96.0308H117.081V88.1976H124.914V80.3645H117.081Z" fill="white"/>
<path d="M101.317 96.0246V88.1915H77.8173V96.0246H69.9842V103.858H93.4836V96.0246H101.317Z" fill="white"/>
<path d="M124.922 72.5374V80.3705H148.421V72.5374H156.255V64.7042H132.755V72.5374H124.922Z" fill="white"/>
<path d="M132.755 96.0246V103.858H156.255V96.0246H148.421V88.1915H124.922V96.0246H132.755Z" fill="white"/>
<path d="M101.322 72.5318H109.155V49.0324H101.322V43.1169H93.4892V64.6987H101.322V72.5318Z" fill="white"/>
<path d="M101.322 103.869H93.4892V127.467H101.322V119.536H109.155V96.0363H101.322V103.869Z" fill="white"/>
<path d="M124.904 64.6987H132.737V43.1169H124.904V49.0324H117.071V72.5318H124.904V64.6987Z" fill="white"/>
<path d="M124.904 96.0363H117.071V119.536H124.904V127.467H132.737V103.869H124.904V96.0363Z" fill="white"/>
<path d="M195.864 106.132C192.45 106.132 189.437 105.572 186.824 104.452C184.21 103.332 182.104 101.705 180.504 99.5716C178.957 97.4382 178.05 94.9049 177.784 91.9716H188.584C188.69 93.3049 189.384 94.3716 190.664 95.1716C191.944 95.9716 193.517 96.3716 195.384 96.3716C197.037 96.3716 198.317 96.1049 199.224 95.5716C200.13 94.9849 200.584 94.2649 200.584 93.4116C200.584 92.6649 200.264 92.0782 199.624 91.6516C198.984 91.1716 198.157 90.8249 197.144 90.6116C196.184 90.3449 194.85 90.0516 193.144 89.7316C190.21 89.1982 187.757 88.6116 185.784 87.9716C183.864 87.3316 182.184 86.2382 180.744 84.6916C179.357 83.1449 178.664 80.9849 178.664 78.2116C178.664 75.7582 179.277 73.5449 180.504 71.5716C181.784 69.5982 183.597 68.0516 185.944 66.9316C188.344 65.8116 191.117 65.2516 194.264 65.2516C197.144 65.2516 199.81 65.7582 202.264 66.7716C204.77 67.7849 206.824 69.2782 208.424 71.2516C210.024 73.2249 210.984 75.6249 211.304 78.4516H199.944C199.837 77.4382 199.25 76.5849 198.184 75.8916C197.117 75.1449 195.704 74.7716 193.944 74.7716C192.61 74.7716 191.544 75.0116 190.744 75.4916C189.944 75.9182 189.544 76.5849 189.544 77.4916C189.544 78.1849 189.837 78.7449 190.424 79.1716C191.01 79.5449 191.757 79.8649 192.664 80.1316C193.57 80.3449 194.877 80.6116 196.584 80.9316C199.624 81.4649 202.13 82.0782 204.104 82.7716C206.13 83.4116 207.89 84.5849 209.384 86.2916C210.877 87.9982 211.624 90.3982 211.624 93.4916C211.624 95.8382 210.93 97.9982 209.544 99.9716C208.157 101.892 206.264 103.412 203.864 104.532C201.464 105.598 198.797 106.132 195.864 106.132Z" fill="white"/>
<path d="M252.389 87.0916C252.389 90.7716 251.589 94.0516 249.989 96.9316C248.442 99.8116 246.255 102.078 243.429 103.732C240.602 105.332 237.375 106.132 233.749 106.132C230.175 106.132 226.949 105.332 224.069 103.732C221.242 102.078 219.029 99.8116 217.429 96.9316C215.829 94.0516 215.029 90.7716 215.029 87.0916V66.0516H226.309V87.0916C226.309 88.7449 226.602 90.2116 227.189 91.4916C227.775 92.7182 228.629 93.6782 229.749 94.3716C230.922 95.0116 232.255 95.3316 233.749 95.3316C236.042 95.3316 237.855 94.5849 239.189 93.0916C240.522 91.5982 241.189 89.5982 241.189 87.0916V66.0516H252.389V87.0916Z" fill="white"/>
<path d="M281.402 65.2516C284.708 65.2516 287.748 66.1582 290.522 67.9716C293.348 69.7849 295.562 72.2649 297.162 75.4116C298.815 78.5582 299.642 81.9716 299.642 85.6516C299.642 89.3316 298.815 92.7449 297.162 95.8916C295.562 99.0382 293.348 101.545 290.522 103.412C287.748 105.225 284.708 106.132 281.402 106.132C278.042 106.132 275.162 105.305 272.762 103.652C270.362 101.998 268.522 99.6516 267.242 96.6116C266.015 93.5182 265.402 89.8649 265.402 85.6516C265.402 81.4916 266.015 77.8649 267.242 74.7716C268.522 71.6782 270.362 69.3316 272.762 67.7316C275.162 66.0782 278.042 65.2516 281.402 65.2516ZM278.842 75.9716C276.975 75.9716 275.295 76.3982 273.802 77.2516C272.308 78.1049 271.135 79.2782 270.282 80.7716C269.428 82.2649 269.002 83.8916 269.002 85.6516C269.002 87.4649 269.428 89.1182 270.282 90.6116C271.135 92.0516 272.308 93.1982 273.802 94.0516C275.295 94.9049 276.975 95.3316 278.842 95.3316C280.602 95.3316 282.228 94.9049 283.722 94.0516C285.215 93.1982 286.388 92.0249 287.242 90.5316C288.148 89.0382 288.602 87.4116 288.602 85.6516C288.602 83.8916 288.148 82.2916 287.242 80.8516C286.388 79.3582 285.215 78.1849 283.722 77.3316C282.228 76.4249 280.602 75.9716 278.842 75.9716ZM257.722 66.0516H269.002V121.252H257.722V66.0516Z" fill="white"/>
<path d="M322.243 106.132C318.456 106.132 314.99 105.225 311.843 103.412C308.696 101.598 306.216 99.1182 304.403 95.9716C302.59 92.7716 301.683 89.2782 301.683 85.4916C301.683 81.7582 302.59 78.3449 304.403 75.2516C306.216 72.1582 308.67 69.7316 311.763 67.9716C314.856 66.1582 318.296 65.2516 322.083 65.2516C325.603 65.2516 328.83 66.1049 331.763 67.8116C334.75 69.4649 337.096 71.7582 338.803 74.6916C340.563 77.6249 341.443 80.8782 341.443 84.4516C341.443 85.9449 341.363 87.3316 341.203 88.6116H307.363L307.443 81.0916H329.603C329.443 79.7582 328.99 78.6116 328.243 77.6516C327.496 76.6916 326.536 75.9449 325.363 75.4116C324.243 74.8249 322.963 74.5316 321.523 74.5316C319.603 74.5316 317.923 74.9582 316.483 75.8116C315.043 76.6649 313.923 77.9716 313.123 79.7316C312.323 81.4916 311.923 83.6782 311.923 86.2916C311.923 88.3716 312.35 90.2116 313.203 91.8116C314.056 93.3582 315.256 94.5582 316.803 95.4116C318.35 96.2649 320.11 96.6916 322.083 96.6916C324.163 96.6916 325.87 96.2649 327.203 95.4116C328.59 94.5582 329.47 93.4649 329.843 92.1316H340.883C340.243 96.3449 338.216 99.7316 334.803 102.292C331.39 104.852 327.203 106.132 322.243 106.132Z" fill="white"/>
<path d="M369.422 76.7716H356.622V105.332H345.422V66.0516H369.422V76.7716Z" fill="white"/>
<path d="M391.837 105.892C388.797 105.892 386.103 105.252 383.757 103.972C381.41 102.638 379.597 100.745 378.317 98.2916C377.037 95.7849 376.397 92.7982 376.397 89.3316V55.7316H387.677V89.1716C387.677 91.1982 388.29 92.7182 389.517 93.7316C390.797 94.7449 392.45 95.2516 394.477 95.2516C395.597 95.2516 396.557 95.1449 397.357 94.9316V105.332C395.81 105.705 393.97 105.892 391.837 105.892ZM369.117 66.0516H397.357V76.7716H369.117V66.0516Z" fill="white"/>
<path d="M418.949 106.132C415.163 106.132 411.696 105.225 408.549 103.412C405.403 101.598 402.923 99.1182 401.109 95.9716C399.296 92.7716 398.389 89.2782 398.389 85.4916C398.389 81.7582 399.296 78.3449 401.109 75.2516C402.923 72.1582 405.376 69.7316 408.469 67.9716C411.563 66.1582 415.003 65.2516 418.789 65.2516C422.309 65.2516 425.536 66.1049 428.469 67.8116C431.456 69.4649 433.803 71.7582 435.509 74.6916C437.269 77.6249 438.149 80.8782 438.149 84.4516C438.149 85.9449 438.069 87.3316 437.909 88.6116H404.069L404.149 81.0916H426.309C426.149 79.7582 425.696 78.6116 424.949 77.6516C424.203 76.6916 423.243 75.9449 422.069 75.4116C420.949 74.8249 419.669 74.5316 418.229 74.5316C416.309 74.5316 414.629 74.9582 413.189 75.8116C411.749 76.6649 410.629 77.9716 409.829 79.7316C409.029 81.4916 408.629 83.6782 408.629 86.2916C408.629 88.3716 409.056 90.2116 409.909 91.8116C410.763 93.3582 411.963 94.5582 413.509 95.4116C415.056 96.2649 416.816 96.6916 418.789 96.6916C420.869 96.6916 422.576 96.2649 423.909 95.4116C425.296 94.5582 426.176 93.4649 426.549 92.1316H437.589C436.949 96.3449 434.923 99.7316 431.509 102.292C428.096 104.852 423.909 106.132 418.949 106.132Z" fill="white"/>
<path d="M482.128 105.332H470.848V66.0516H482.128V105.332ZM458.448 106.132C455.141 106.132 452.075 105.225 449.248 103.412C446.421 101.545 444.208 99.0382 442.608 95.8916C441.008 92.7449 440.208 89.3316 440.208 85.6516C440.208 81.9716 441.008 78.5582 442.608 75.4116C444.208 72.2649 446.421 69.7849 449.248 67.9716C452.075 66.1582 455.141 65.2516 458.448 65.2516C461.808 65.2516 464.688 66.0782 467.088 67.7316C469.488 69.3316 471.301 71.6782 472.528 74.7716C473.808 77.8649 474.448 81.4916 474.448 85.6516C474.448 89.8649 473.808 93.5182 472.528 96.6116C471.301 99.6516 469.488 101.998 467.088 103.652C464.688 105.305 461.808 106.132 458.448 106.132ZM461.008 95.3316C462.875 95.3316 464.555 94.9049 466.048 94.0516C467.541 93.1982 468.715 92.0516 469.568 90.6116C470.421 89.1182 470.848 87.4649 470.848 85.6516C470.848 83.8382 470.421 82.2116 469.568 80.7716C468.715 79.2782 467.541 78.1049 466.048 77.2516C464.555 76.3982 462.875 75.9716 461.008 75.9716C459.195 75.9716 457.541 76.4249 456.048 77.3316C454.608 78.1849 453.435 79.3582 452.528 80.8516C451.675 82.2916 451.248 83.8916 451.248 85.6516C451.248 87.4116 451.675 89.0382 452.528 90.5316C453.435 92.0249 454.608 93.1982 456.048 94.0516C457.541 94.9049 459.195 95.3316 461.008 95.3316Z" fill="white"/>
<path d="M547.689 105.332H536.409V76.7716H523.449V105.332H512.169V76.7716H499.289V105.332H488.009V66.0516H547.689V105.332Z" fill="white"/>
</svg>
